PathFileType	4	(X/Y/Z)	RBDS027\RBDS027runT25.trc
DataRate	CameraRate	NumFrames	NumMarkers	Units	OrigDataRate	OrigDataStartFrame	OrigNumFrames
150.000000	150.000000	5	33	mm	150.000000	1125	4500
Frame#	Time	L.ASIS			L.Heel.Bottom			L.Heel.Lateral			L.Heel.Top			L.Iliac.Crest			L.MT1			L.MT5			L.PSIS			L.Shank.Bottom.Lateral			L.Shank.Bottom.Medial			L.Shank.Top.Lateral			L.Shank.Top.Medial			L.Thigh.Bottom.Lateral			L.Thigh.Bottom.Medial			L.Thigh.Top.Lateral			L.Thigh.Top.Medial			R.ASIS			R.ASY			R.Heel.Bottom			R.Heel.Lateral			R.Heel.Top			R.Iliac.Crest			R.MT1			R.MT5			R.PSIS			R.Shank.Bottom.Lateral			R.Shank.Bottom.Medial			R.Shank.Top.Lateral			R.Shank.Top.Medial			R.Thigh.Bottom.Lateral			R.Thigh.Bottom.Medial			R.Thigh.Top.Lateral			R.Thigh.Top.Medial			
		X1	Y1	Z1	X2	Y2	Z2	X3	Y3	Z3	X4	Y4	Z4	X5	Y5	Z5	X6	Y6	Z6	X7	Y7	Z7	X8	Y8	Z8	X9	Y9	Z9	X10	Y10	Z10	X11	Y11	Z11	X12	Y12	Z12	X13	Y13	Z13	X14	Y14	Z14	X15	Y15	Z15	X16	Y16	Z16	X17	Y17	Z17	X18	Y18	Z18	X19	Y19	Z19	X20	Y20	Z20	X21	Y21	Z21	X22	Y22	Z22	X23	Y23	Z23	X24	Y24	Z24	X25	Y25	Z25	X26	Y26	Z26	X27	Y27	Z27	X28	Y28	Z28	X29	Y29	Z29	X30	Y30	Z30	X31	Y31	Z31	X32	Y32	Z32	X33	Y33	Z33	

1126	7.500000000000001	2101.357474214487	878.5265853823034	883.4170579363952	2060.48284125078	23.73532285086891	1013.647015749103	2090.20553142386	39.46774718850794	966.9765480491881	2075.263631395969	71.73601219052188	1010.543864208991	2042.451158782351	951.7676140955291	855.6036412526058	2279.889334523551	38.06971316122147	1047.347903723045	2240.3199718434	30.29316564409024	938.3337441664686	1944.77535432712	900.5427682255954	976.6900167020972	2138.288403690373	137.4580894436372	937.9598543657825	2101.255178126949	146.7016646806877	978.0648555088293	2126.618069098231	213.7259758483655	912.9486533867539	2096.04107180434	224.2395711994571	956.2425207398676	2141.522812887948	534.2977476019206	855.6008278659248	2091.876591075375	509.1954828618705	900.2537856175135	2077.914508374302	622.6497504848891	838.5270020912163	2032.223745238525	600.5647884558472	883.8089600630144	2116.018174366326	862.582601646575	1143.308008124297	1593.50994326379	247.5698818501619	1074.561675748435	1530.562085844532	424.6221866492399	1039.081544517936	1541.10016395144	399.0527013565201	1086.349444115384	1574.797348434053	416.3493677042318	1047.254325972125	2081.738992313362	953.1344869813994	1163.666651720017	1550.523895627542	208.8199738107461	1016.666817469347	1530.464600758601	251.282196311135	1125.221057447116	1956.857565675268	899.9452872645296	1073.153153015166	1648.351700467201	380.9943581367584	1111.099949991234	1650.869085886426	409.5406212434606	1068.998630922584	1725.378902367731	408.8918344911482	1133.006182965322	1723.386479679793	438.9574172771064	1089.217932037456	1981.958604503869	495.5282963890235	1169.599225400202	1929.003984734644	506.4484394539932	1120.23491866433	1983.231286166552	603.686820589872	1186.824870944108	1931.481912635787	614.7425729788275	1141.193718092799	
1127	7.506666666666667	2099.337431465621	873.1419285756688	883.686166592469	2043.556742692591	22.51283340721544	1015.202259639938	2073.416940817598	40.15454442257958	969.0938775893671	2058.588923100797	70.72049656030077	1014.049204687668	2040.149986519747	944.340192616681	855.7043502153826	2263.400371454973	35.8391034822445	1049.682117199879	2223.513832328294	31.4449247761277	940.0537176340476	1942.675283010495	893.9302980996846	977.8320385815443	2125.809400425766	135.5207059314433	941.4624569867335	2088.245782870752	146.7297601747888	980.6114238917534	2117.61333636821	212.0130402080758	915.3881411381029	2086.753531811288	224.207395472152	958.0320011685818	2140.956649729555	529.5458730885239	856.2987777163964	2091.441041821025	504.2111636194105	901.0030167814803	2076.900911054517	617.5552297368349	839.2520871021569	2031.346211913661	595.3026917680498	884.6233465961943	2115.370873303484	856.515821819468	1143.498437678389	1598.957724417284	251.2678046391438	1077.075497619544	1541.369189853705	430.6580759339568	1042.662613338625	1551.222012521763	404.3293077092935	1089.803332559028	1585.353556752637	421.0219024161048	1050.949672228429	2081.138950326281	945.8713292026895	1164.513050856354	1554.813437646203	214.2891728028542	1018.867698651557	1536.120501379141	256.5853714460024	1127.795744567501	1955.371839856692	892.4491619965333	1074.003146395974	1658.002189967244	382.9985000432591	1113.880484692729	1661.200413434976	411.6187875689946	1071.897711520451	1736.000759786859	408.2526000725425	1135.462203080224	1734.769182129173	438.485300492406	1091.769155246744	1988.598982869943	487.7021344716168	1170.571096889476	1935.990857863861	496.9527051488753	1120.647928827147	1987.112710879755	595.9255112742482	1187.294983569022	1935.369806220287	605.4230341469329	1141.389398841226	
1128	7.513333333333334	2097.227504323222	867.9398987147923	884.0073346766219	2026.625087875845	21.78352633564177	1016.499271799545	2056.617893070162	41.00235933952455	970.8809189480392	2041.859691561835	70.12434731374601	1016.960446197883	2037.796283788671	936.7640663785189	855.808667244219	2246.832376128207	34.44501071427209	1051.416114570172	2206.641816129003	32.60774606775777	941.4620181898125	1940.432425049613	887.6786815563888	978.8965254655284	2113.097885402003	134.1503168717004	944.3993629649855	2075.14885042714	147.2428315713706	982.6636591659483	2108.327609878435	210.7172904192934	917.4769388018686	2077.275065359798	224.5393770177722	959.4905799157473	2139.84638309159	524.9314688398989	857.0221797422631	2090.478083270249	499.4840285103184	901.8551201985453	2075.485773619917	612.6908734205285	839.9860899987266	2030.068089640707	590.3767646736901	885.4948191403438	2114.386273037938	850.6073153795803	1143.801588431919	1605.731233997234	254.3894089441461	1079.81447356533	1552.72990523635	435.5552476503599	1045.983227619714	1562.027608364317	408.6945156577452	1093.083049525152	1596.479463236513	424.787725829308	1054.366339527628	2080.180519777785	938.7322648544148	1165.401217704542	1560.576403880164	218.8161796516847	1021.513622618317	1543.168529964787	261.1678270249481	1130.668296489266	1953.619531908035	885.3462907967368	1074.769577520119	1668.369109526656	384.5103542258502	1116.57667153825	1672.216385054042	413.1459023414145	1074.682073772994	1747.170780214084	407.3328294036777	1137.863802256901	1746.677149359583	437.6419111342049	1094.215469086343	1995.491742192241	480.3239090118448	1171.670860537182	1943.256697314191	487.8081465238309	1121.218969646163	1991.10045133367	588.5317364000041	1187.84463057306	1939.374842491743	596.3567383754859	1141.669919561039	
1129	7.52	2095.045131402144	863.0194386371909	884.3577932044379	2009.782305713774	21.5290757817056	1017.524112807821	2039.903378253986	41.92668583056589	972.3024814654133	2025.199277404011	69.92667879802474	1019.215938141144	2035.354934352147	929.2058428374486	855.9336056987729	2230.279499430731	33.70792682268348	1052.591389412993	2189.797978837856	33.63675358912858	942.5484983416496	1938.081420409476	881.8994183732218	979.9007977369844	2100.231874890284	133.2850812492771	946.6798014352303	2062.051807464375	148.1541699907453	984.1563159173767	2098.7948947614	209.7876464083562	919.1304979559244	2067.643140193633	225.1617133322872	960.5455554310957	2138.1707691515	520.5073734461507	857.7321613802776	2088.954072670849	495.0587319351908	902.7530254527611	2073.657183509829	608.1245769495498	840.7033712707636	2028.369206095022	585.846698769823	886.3855724305745	2113.044991440655	844.9585290332785	1144.238581771162	1613.810404040479	256.9014198170302	1082.734323823839	1564.46274657963	439.2837561331021	1049.03917980604	1573.384143691548	412.1293251105755	1096.174156803686	1608.020822165706	427.6390529110649	1057.467790161993	2078.754235920117	931.8763196837228	1166.334604365398	1567.762895257791	222.3106410229898	1024.589288801294	1551.594572427965	264.9565703165862	1133.829103555488	1951.62365166524	878.7703273911428	1075.469331775429	1679.374885081871	385.5429809530863	1119.157897601767	1683.820889065805	414.1356810388691	1077.316417343281	1758.831511727139	406.1836061482637	1140.174659999235	1759.026940748916	436.4846755934969	1096.52136271082	2002.738026250226	473.4664339512318	1172.908179669842	1950.85901113406	479.0948114732165	1121.998139741513	1995.268035565691	581.562961176126	1188.508857284759	1943.549552262431	587.5986793751824	1142.107138125882	
1130	7.526666666666667	2092.815260457823	858.4532844170383	884.7224495916684	1993.072354213515	21.69690671359559	1018.278063160277	2023.317248424629	42.85849388578124	973.3489180856266	2008.674126899292	70.08110663724308	1020.81152554113	2032.806928545852	921.8522397794883	856.0942591715353	2213.785431483243	33.43318636186881	1053.284812233799	2173.030101211265	34.43762091342715	943.3221257935533	1935.663561510046	876.6805290115901	980.8570268645778	2087.249858014139	132.8370092259279	948.271382516303	2048.991388226988	149.3622371042648	985.0718190371864	2089.019515860303	209.1513085676762	920.2981889575591	2057.858545213372	225.9871267642609	961.1538215508301	2135.908645664928	516.302711411421	858.3726804424849	2086.832951024213	490.9521500974153	903.6180929935393	2071.404180499704	603.9022506677945	841.3675825444394	2026.230158415182	581.7454976745249	887.2447661056112	2111.346733570525	839.6620767742855	1144.823682464874	1623.149159230659	258.7677111686874	1085.785989628249	1576.405951089303	441.8349708431232	1051.841318039934	1585.164320134694	414.6210248476661	1099.073664019163	1619.838705451565	429.5784658121982	1060.243013214098	2076.772699838296	925.4524422954771	1167.315983508119	1576.301827701289	224.7041877693171	1028.056391033435	1561.3499509521	267.8799748986446	1137.250450391162	1949.42073012546	872.8291083119798	1076.118051901496	1690.937094077865	386.1073839431606	1121.603539573976	1695.910249656009	414.6032066745832	1079.776801580297	1770.920025891367	404.8546198897778	1142.364989618745	1771.727872221272	435.0734172797716	1098.660438479492	2010.412154414263	467.2053543169762	1174.278770174122	1958.842592252353	470.8994296095577	1123.006841039316	1999.670385434491	575.0777502449957	1189.311216798616	1947.939101895949	579.2099264811519	1142.753223155803	
